<?xml version="1.0" encoding="utf-8"?>
<!-- Generator: Adobe Illustrator 18.1.0, SVG Export Plug-In . SVG Version: 6.00 Build 0)  -->
<svg version="1.1" id="Layer_1" xmlns="http://www.w3.org/2000/svg" xmlns:xlink="http://www.w3.org/1999/xlink" x="0px" y="0px"
	 viewBox="0 0 226 100" enable-background="new 0 0 226 100" xml:space="preserve">
<g>
	<g>
		<g>
			<path fill="#606060" d="M98,50L82.616,23H28.769C25.583,23,23,25.59,23,28.786v42.428C23,74.41,25.583,77,28.769,77h53.846L98,50
				z"/>
			<path fill="#BB0E3D" d="M96.116,25.815C95.061,24.069,93.157,23,91.101,23H87l15.585,27L87,77h4.101
				c2.055,0,3.96-1.069,5.015-2.815L110,50L96.116,25.815z"/>
		</g>
		<g>
			<rect x="55" y="38" fill="#FFFFFF" width="4" height="24"/>
			<polygon fill="#FFFFFF" points="47,38 47,55.6 36,38 32,38 32,62 36,62 36,44.4 47,62 51,62 51,38 			"/>
			<polygon fill="#FFFFFF" points="78,38 78,48 67,48 67,38 63,38 63,62 67,62 67,52 78,52 78,62 82,62 82,38 			"/>
		</g>
	</g>
	<g>
		<g>
			<path fill="#BB0E3D" d="M127.874,27.522h2.407v10.785h-2.407l-5.14-6.758v6.758h-2.407V27.522h2.253l5.294,6.943V27.522z"/>
			<path fill="#BB0E3D" d="M140.621,38.307l-1.003-2.33h-4.521l-1.004,2.33h-2.562l4.661-10.785h2.33l4.66,10.785H140.621z
				 M137.365,30.731l-1.358,3.132h2.7L137.365,30.731z"/>
			<path fill="#BB0E3D" d="M148.213,29.605v8.702h-2.407v-8.702h-3.057v-2.083h8.52v2.083H148.213z"/>
			<path fill="#BB0E3D" d="M153.028,27.522h2.407v10.785h-2.407V27.522z"/>
			<path fill="#BB0E3D" d="M167.164,36.818c-1.091,1.064-2.433,1.597-4.027,1.597s-2.938-0.532-4.028-1.597
				s-1.636-2.389-1.636-3.973c0-1.583,0.545-2.908,1.636-3.973s2.434-1.597,4.028-1.597s2.937,0.532,4.027,1.597
				s1.636,2.389,1.636,3.973C168.799,34.429,168.254,35.753,167.164,36.818z M166.346,32.853c0-0.961-0.309-1.782-0.926-2.461
				c-0.618-0.679-1.377-1.018-2.276-1.018c-0.9,0-1.659,0.339-2.276,1.018c-0.617,0.679-0.927,1.5-0.927,2.461
				c0,0.962,0.31,1.78,0.927,2.453c0.617,0.674,1.376,1.011,2.276,1.011c0.899,0,1.658-0.337,2.276-1.011
				C166.038,34.632,166.346,33.814,166.346,32.853z"/>
			<path fill="#BB0E3D" d="M178.383,27.522h2.407v10.785h-2.407l-5.14-6.758v6.758h-2.407V27.522h2.253l5.294,6.943V27.522z"/>
			<path fill="#BB0E3D" d="M191.13,38.307l-1.003-2.33h-4.521l-1.004,2.33h-2.562l4.661-10.785h2.33l4.66,10.785H191.13z
				 M187.875,30.731l-1.358,3.132h2.7L187.875,30.731z"/>
			<path fill="#BB0E3D" d="M194.942,38.307V27.522h2.407v8.64h4.6v2.145H194.942z"/>
			<path fill="#BB0E3D" d="M125.281,53.534c1.183,0,2.15-0.468,2.901-1.404l1.543,1.589c-1.225,1.379-2.667,2.067-4.329,2.067
				c-1.661,0-3.029-0.524-4.104-1.573s-1.613-2.373-1.613-3.973s0.548-2.935,1.644-4.004s2.437-1.604,4.021-1.604
				c1.77,0,3.251,0.674,4.444,2.021l-1.497,1.697c-0.761-0.946-1.707-1.419-2.839-1.419c-0.905,0-1.68,0.296-2.323,0.887
				c-0.643,0.592-0.964,1.389-0.964,2.392s0.303,1.808,0.91,2.415C123.681,53.23,124.417,53.534,125.281,53.534z"/>
			<path fill="#BB0E3D" d="M139.232,55.663l-1.003-2.33h-4.521l-1.004,2.33h-2.562l4.661-10.784h2.33l4.66,10.784H139.232z
				 M135.976,48.088l-1.358,3.132h2.7L135.976,48.088z"/>
			<path fill="#BB0E3D" d="M150.59,44.879h2.407v10.784h-2.407l-5.14-6.758v6.758h-2.407V44.879h2.253l5.294,6.942V44.879z"/>
			<path fill="#BB0E3D" d="M160.606,53.534c1.183,0,2.15-0.468,2.901-1.404l1.543,1.589c-1.225,1.379-2.667,2.067-4.329,2.067
				c-1.661,0-3.029-0.524-4.104-1.573s-1.613-2.373-1.613-3.973s0.548-2.935,1.644-4.004s2.437-1.604,4.021-1.604
				c1.77,0,3.251,0.674,4.444,2.021l-1.497,1.697c-0.761-0.946-1.707-1.419-2.839-1.419c-0.905,0-1.68,0.296-2.323,0.887
				c-0.643,0.592-0.964,1.389-0.964,2.392s0.303,1.808,0.91,2.415C159.006,53.23,159.742,53.534,160.606,53.534z"/>
			<path fill="#BB0E3D" d="M174.727,44.879v2.145h-5.371v2.222h4.831v2.052h-4.831v2.237h5.541v2.129h-7.948V44.879H174.727z"/>
			<path fill="#BB0E3D" d="M185.792,48.458c0,1.728-0.684,2.844-2.052,3.348l2.731,3.857h-2.963l-2.393-3.44h-1.667v3.44h-2.407
				V44.879h4.09c1.677,0,2.873,0.282,3.588,0.849C185.434,46.293,185.792,47.203,185.792,48.458z M182.89,49.738
				c0.299-0.268,0.448-0.691,0.448-1.272s-0.154-0.979-0.463-1.196c-0.309-0.216-0.85-0.323-1.621-0.323h-1.806v3.193h1.76
				C182.032,50.14,182.592,50.006,182.89,49.738z"/>
			<path fill="#BB0E3D" d="M120.327,62.236h2.407v10.784h-2.407V62.236z"/>
			<path fill="#BB0E3D" d="M132.935,62.236h2.407v10.784h-2.407l-5.14-6.758v6.758h-2.407V62.236h2.253l5.294,6.942V62.236z"/>
			<path fill="#BB0E3D" d="M140.52,64.389c-0.231,0.19-0.348,0.442-0.348,0.756s0.142,0.562,0.425,0.748s0.936,0.403,1.96,0.655
				c1.023,0.253,1.818,0.631,2.384,1.135c0.566,0.504,0.85,1.239,0.85,2.206s-0.363,1.751-1.088,2.353
				c-0.726,0.602-1.681,0.902-2.863,0.902c-1.708,0-3.246-0.632-4.614-1.897l1.436-1.759c1.162,1.019,2.237,1.527,3.225,1.527
				c0.442,0,0.79-0.095,1.042-0.285s0.378-0.447,0.378-0.771s-0.134-0.581-0.401-0.771s-0.797-0.383-1.589-0.578
				c-1.256-0.299-2.174-0.688-2.755-1.165c-0.581-0.479-0.872-1.229-0.872-2.253s0.368-1.812,1.104-2.368s1.653-0.833,2.755-0.833
				c0.72,0,1.44,0.123,2.16,0.37c0.721,0.247,1.348,0.597,1.883,1.049l-1.219,1.759c-0.937-0.709-1.903-1.064-2.901-1.064
				C141.068,64.103,140.751,64.198,140.52,64.389z"/>
			<path fill="#BB0E3D" d="M152.318,64.318v8.702h-2.407v-8.702h-3.057v-2.082h8.52v2.082H152.318z"/>
			<path fill="#BB0E3D" d="M157.132,62.236h2.407v10.784h-2.407V62.236z"/>
			<path fill="#BB0E3D" d="M166.762,64.318v8.702h-2.407v-8.702h-3.057v-2.082h8.52v2.082H166.762z"/>
			<path fill="#BB0E3D" d="M174.432,70.235c0.401,0.499,0.941,0.749,1.62,0.749s1.217-0.25,1.612-0.749
				c0.396-0.498,0.595-1.18,0.595-2.044v-5.955h2.407v6.032c0,1.563-0.432,2.765-1.296,3.603c-0.864,0.839-1.971,1.258-3.318,1.258
				s-2.456-0.422-3.326-1.266c-0.869-0.843-1.304-2.042-1.304-3.595v-6.032h2.407v5.955
				C173.83,69.056,174.031,69.737,174.432,70.235z"/>
			<path fill="#BB0E3D" d="M187.735,64.318v8.702h-2.407v-8.702h-3.057v-2.082h8.52v2.082H187.735z"/>
			<path fill="#BB0E3D" d="M200.328,62.236v2.145h-5.371v2.222h4.831v2.052h-4.831v2.237h5.541v2.129h-7.948V62.236H200.328z"/>
		</g>
	</g>
</g>
</svg>
